<?xml version="1.0" encoding="UTF-8" standalone="no"?>
<!DOCTYPE svg PUBLIC "-//W3C//DTD SVG 1.1//EN" "http://www.w3.org/Graphics/SVG/1.1/DTD/svg11.dtd">
<svg width="640" height="640" viewBox="0 0 640 640" version="1.1" xmlns="http://www.w3.org/2000/svg">
  <rect x="0" y="0" width="640" height="640" stroke="none" fill="#fff"/>
  <g stroke-linejoin="round" stroke="#000" stroke-width="2">
    <rect x="20" y="20" width="600" height="600" fill="#fff"/>
    <circle cx="320" cy="320" r="278" fill="#fed"/>
    <ellipse cx="320" cy="320" rx="249" ry="192" fill="#fdb"/>
    <ellipse cx="320" cy="320" rx="218" ry="119" fill="#fc9"/>
    <path d="M320,255.365C337.412,246.929 358.408,242 381,242C441.159,242 490,276.951 490,320C490,363.049 441.159,398 381,398C358.408,398 337.412,393.071 320,384.635C302.588,393.071 281.592,398 259,398C198.841,398 150,363.049 150,320C150,276.951 198.841,242 259,242C281.592,242 302.588,246.929 320,255.365Z" fill="#fb7"/>
    <path d="M320,255.365C348.954,269.393 368,293.117 368,320C368,346.883 348.954,370.607 320,384.635C291.046,370.607 272,346.883 272,320C272,293.117 291.046,269.393 320,255.365Z" fill="#fa5"/>
    <circle cx="320" cy="320" r="21" fill="#f93"/>
  </g>
  <g font-family="Arial, 'Liberation Sans', FreeSans, sans-serif" font-size="25" text-anchor="middle">
    <text x="542" y="67">PSPACE</text>
    <text x="320" y="96">PP</text>
    <text x="320" y="171">BQP</text>
    <text x="320" y="236">BPP</text>
    <text x="320" y="294">ZPP</text>
    <text x="221" y="331">RP</text>
    <text x="419" y="331">coRP</text>
    <text x="320" y="331">P</text>
  </g>
</svg>
